HIERARCHY
ROOT Hips
{
  OFFSET 0 0 0
  CHANNELS 6 Xposition Yposition Zposition Zrotation Xrotation Yrotation
  JOINT Spine
  {
    OFFSET 0 10.1816 0.1315
    CHANNELS 3 Zrotation Xrotation Yrotation
    JOINT Spine1
    {
      OFFSET 0 10.0835 -1.0008
      CHANNELS 3 Zrotation Xrotation Yrotation
      JOINT Spine2
      {
        OFFSET 0 9.1 -1.3734
        CHANNELS 3 Zrotation Xrotation Yrotation
        JOINT Neck
        {
          OFFSET 0 16.6717 -2.5162
          CHANNELS 3 Zrotation Xrotation Yrotation
          JOINT Head
          {
            OFFSET 0 9.6179 1.685
            CHANNELS 3 Zrotation Xrotation Yrotation
            End Site
            {
              OFFSET 0 17.8152 2.585
            }
          }
        }
        JOINT LeftShoulder
        {
          OFFSET 4.5704 10.946 -2.628
          CHANNELS 3 Zrotation Xrotation Yrotation
          JOINT LeftArm
          {
            OFFSET 10.5924 -0.5246 -2.2321
            CHANNELS 3 Zrotation Xrotation Yrotation
            JOINT LeftForeArm
            {
              OFFSET 27.8415 -0.0001 0
              CHANNELS 3 Zrotation Xrotation Yrotation
              JOINT LeftHand
              {
                OFFSET 28.3288 0 0
                CHANNELS 3 Zrotation Xrotation Yrotation
                End Site
                {
                  OFFSET 0 0 0
                }
              }
            }
          }
        }
        JOINT RightShoulder
        {
          OFFSET -4.57 10.9462 -2.628
          CHANNELS 3 Zrotation Xrotation Yrotation
          JOINT RightArm
          {
            OFFSET -10.5928 -0.5248 -2.2321
            CHANNELS 3 Zrotation Xrotation Yrotation
            JOINT RightForeArm
            {
              OFFSET -27.8415 0 0
              CHANNELS 3 Zrotation Xrotation Yrotation
              JOINT RightHand
              {
                OFFSET -28.3288 0 0.0001
                CHANNELS 3 Zrotation Xrotation Yrotation
                End Site
                {
                  OFFSET 0 0 0
                }
              }
            }
          }
        }
      }
    }
  }
  JOINT LeftUpLeg
  {
    OFFSET 8.2078 -6.7517 -1.5996
    CHANNELS 3 Zrotation Xrotation Yrotation
    JOINT LeftLeg
    {
      OFFSET 0 -44.3705 0.2846
      CHANNELS 3 Zrotation Xrotation Yrotation
      JOINT LeftFoot
      {
        OFFSET 0 -44.4279 -2.9822
        CHANNELS 3 Zrotation Xrotation Yrotation
        JOINT LeftToeBase
        {
          OFFSET 0 -8.7287 10.7106
          CHANNELS 3 Zrotation Xrotation Yrotation
          End Site
          {
            OFFSET 0 -0.0007 9.2781
          }
        }
      }
    }
  }
  JOINT RightUpLeg
  {
    OFFSET -8.2078 -6.7517 -1.5996
    CHANNELS 3 Zrotation Xrotation Yrotation
    JOINT RightLeg
    {
      OFFSET 0 -44.3705 0.2862
      CHANNELS 3 Zrotation Xrotation Yrotation
      JOINT RightFoot
      {
        OFFSET 0 -44.4277 -2.9838
        CHANNELS 3 Zrotation Xrotation Yrotation
        JOINT RightToeBase
        {
          OFFSET 0 -8.7287 10.7106
          CHANNELS 3 Zrotation Xrotation Yrotation
          End Site
          {
            OFFSET 0 -0.0007 9.2781
          }
        }
      }
    }
  }
}
MOTION
Frames:	14
Frame Time:	0.0333333
12.9088 98.727 29.461 47.9951 -42.8518 -63.9187 1.01341 4.626 -0.2225 0.977377 8.29169 -0.915261 1.24814 8.3461 -0.614972 -9.73583 -7.58462 12.5677 -44.6739 5.25753 39.7087 -10.8316 8.96603 -7.04585 -54.7675 -25.3923 -4.83842 -0.000198794 5.58394e-06 -65.626 8.87613 -18.3382 -24.2675 1.14245 4.80179 12.8871 29.0252 -16.2702 29.0286 3.09445e-05 -3.58427e-06 103.586 -41.7802 33.1473 25.8188 86.4298 -62.6267 67.0095 -167.731 49.9789 156.175 4.13136 -34.7754 27.5144 -2.02589e-05 -0.414246 3.65998e-06 -90.8449 -42.1255 -67.17 0.576175 38.3638 -7.56796 4.10977 -6.6771 -0.743561 4.60249e-06 -5.52538 6.73903e-06 
13.0943 98.3646 28.3301 46.1058 -39.1733 -63.5778 0.602084 4.46554 0.0990515 1.5751 7.98896 -0.880259 1.83682 8.04005 -0.580411 -9.55629 -7.11606 12.4306 -44.6501 4.47776 38.5899 -10.238 8.90657 -6.72346 -54.9604 -26.8169 -6.94834 -0.00025606 -3.30714e-06 -81.086 2.19794 -16.5526 -22.2759 0.838816 4.7578 13.1429 30.1746 -18.4407 30.1699 2.95914e-05 7.46141e-06 104.152 -38.2437 29.9757 23.2395 83.906 -71.2422 89.9155 -167.946 48.9579 164.901 6.15617 -30.369 22.8009 1.06405e-05 -1.66427 -1.52153e-05 -87.0824 -42.6667 -64.3936 1.48639 40.9211 -8.62522 3.75524 -8.76883 -3.87187 4.40062e-06 -5.38848 1.15131e-05 
12.835 98.66 27.1901 42.7766 -35.1287 -63.7459 0.32845 4.36241 -0.156171 2.23637 7.7858 -0.931855 2.48799 7.83795 -0.637916 -9.30625 -6.45136 12.3602 -44.159 3.70729 37.5761 -9.86547 8.8791 -6.56554 -55.5343 -26.058 -9.06386 -0.000137612 -7.77269e-06 -94.1731 -4.75957 -14.3408 -20.268 0.785745 4.73779 13.3387 30.2403 -17.3075 28.758 3.16068e-05 -8.0805e-06 105.354 -36.2583 27.9303 21.6271 42.3727 -80.2532 67.9663 -164.394 63.0326 169.134 1.41771 -21.5508 16.0978 -4.95173e-06 -0.297165 3.27259e-06 -79.822 -42.3194 -58.8884 2.54698 41.5131 -9.79075 3.33847 -10.3342 -7.41763 2.81826e-06 -5.19719 1.23615e-05 
12.2957 99.2041 26.1822 38.2588 -30.4893 -64.4953 0.28534 4.2856 -0.453677 2.9495 7.65281 -0.937561 3.19229 7.70842 -0.658152 -9.03748 -5.50071 12.2661 -43.2456 3.5765 36.547 -9.69616 8.88309 -6.60331 -56.6314 -22.8699 -11.3289 -0.000183549 -3.65047e-06 -103.842 -10.609 -11.3957 -18.4615 0.882965 4.73544 13.4637 29.8016 -13.3776 25.7776 6.47042e-07 -4.39632e-06 106.745 -35.8098 27.0248 20.7608 -18.3525 -74.4892 13.7766 -129.311 82.1172 134.887 -6.42426 -10.6956 13.8013 -1.67505e-05 0.935217 1.42873e-05 -69.9599 -41.384 -51.4687 3.65099 41.0519 -11.1577 2.91402 -11.6216 -11.2557 2.73797e-06 -4.86467 -1.90868e-05 
11.5138 99.7094 25.0484 33.1535 -25.2292 -65.4105 0.396732 4.18483 -0.609807 3.62517 7.50611 -0.926571 3.86156 7.56768 -0.673999 -8.64172 -4.34332 12.0853 -41.816 4.20825 35.431 -9.58285 8.93062 -6.95896 -57.7404 -17.8373 -13.6051 -0.000197442 5.22442e-06 -110.022 -13.1525 -8.28035 -17.0345 0.890751 4.73311 13.4894 29.9928 -7.90412 22.6719 1.52588e-05 1.8107e-14 108.222 -36.392 26.6815 20.3937 -27.388 -61.9888 3.33238 -18.4566 72.009 22.7378 -13.2657 -2.74047 17.0863 4.09903e-06 0.976498 -8.77183e-06 -58.3383 -40.045 -43.0077 4.52729 40.1627 -12.1287 2.26087 -12.9248 -15.9229 -6.41543e-06 -4.37397 -1.71147e-05 
10.5701 100.026 23.7367 27.9925 -19.6097 -66.0187 0.545669 4.04939 -0.688458 4.10681 7.30692 -0.976894 4.33832 7.37655 -0.762716 -7.95916 -3.17614 11.7841 -39.8302 5.2183 34.2137 -9.35396 9.02811 -7.71366 -58.3217 -12.4761 -16.0241 -0.000199596 -6.00677e-06 -113.182 -10.4329 -6.23475 -16.118 0.694632 4.72032 13.4151 31.4406 -2.44469 20.6897 -1.34356e-11 2.18753e-12 109.843 -37.3413 26.1938 20.3797 -23.8019 -49.7032 2.28686 -8.84225 52.3705 11.5282 -15.3402 0.898536 23.689 6.82859e-06 -0.0588276 3.86303e-06 -46.1201 -38.1772 -34.6249 5.15146 39.0789 -12.5653 1.24849 -14.1951 -21.2768 4.06242e-07 -4.08443 1.71087e-05 
9.5916 99.9919 22.3578 23.0894 -13.9994 -66.1558 0.689476 3.90306 -0.727904 4.24489 7.07195 -1.10781 4.47062 7.14936 -0.936125 -6.92386 -2.20011 11.3592 -37.4291 6.01135 32.9317 -8.95051 9.16055 -8.77968 -58.2477 -8.46346 -19.0099 -0.000183105 -1.32194e-14 -114.032 -2.15326 -6.19369 -15.4188 0.386008 4.70371 13.2557 33.848 1.71233 20.5815 -1.63188e-05 5.5879e-06 111.482 -38.079 25.1037 20.5772 -17.0606 -39.3557 3.56986 -6.79138 36.9386 8.1141 -12.2787 1.44932 29.5046 1.03143 -4.24365 0.0656371 -34.7917 -35.8928 -27.7265 5.91448 38.2349 -13.8568 0.093986 -15.4264 -25.3604 -2.9124e-06 -4.89214 1.32072e-05 
8.72268 99.4422 21.0359 18.8119 -8.83834 -65.7679 0.728112 3.75806 -0.750054 3.96252 6.80976 -1.2597 4.17935 6.8915 -1.12432 -5.64469 -1.55 10.839 -34.909 6.12863 31.618 -8.47076 9.29514 -9.90674 -57.7418 -6.71279 -22.9094 -0.000199616 -6.05178e-06 -113.366 9.96247 -7.8408 -14.1987 0.113101 4.69848 13.0072 36.4651 3.94741 22.6293 -1.52588e-05 5.73811e-12 112.663 -38.1974 23.3082 20.7016 -9.77621 -33.0736 5.79459 -6.42717 29.6026 8.51946 -6.97174 -1.16807 30.1659 1.5621e-06 -11.4133 6.37922e-06 -26.7052 -34.5607 -23.8153 7.33951 40.3812 -14.9175 -2.29584 -15.1567 -25.2051 5.94306e-06 -7.77947 2.0211e-05 
8.07285 98.4388 19.8176 15.6035 -4.42091 -64.7565 0.609142 3.59729 -0.745672 3.31701 6.49134 -1.35208 3.52126 6.57261 -1.24044 -4.38856 -1.25214 10.2731 -32.5825 5.51497 30.2134 -8.07103 9.403 -10.8514 -57.1208 -6.87339 -27.608 -0.000213623 1.83545e-12 -112.035 22.8093 -9.5738 -12.0772 -0.150664 4.70592 12.6611 38.8339 4.4882 26.5503 1.7655e-05 -1.18537e-05 112.856 -37.5453 20.9788 20.3543 -3.14 -31.6383 8.63788 -6.63124 30.7766 8.86758 -1.38582 -8.16527 28.6548 2.61654e-06 -3.48625 7.86181e-06 -22.7162 -34.7954 -22.7987 9.12811 45.852 -14.655 -5.55818 -13.0184 -18.8317 -5.53609e-06 -9.7372 -5.33931e-06 
7.64335 97.3316 18.6681 13.6085 -0.829808 -62.9748 0.370318 3.41962 -0.703882 2.48081 6.12275 -1.34529 2.66967 6.19979 -1.2454 -3.41326 -1.20758 9.69476 -30.6155 4.4759 28.5766 -7.81 9.48152 -11.5723 -56.6598 -7.97462 -32.5909 -0.00022691 1.07913e-05 -110.708 33.134 -10.0348 -9.66488 -0.623242 4.7032 12.2649 41.0008 3.97963 31.6178 2.94057e-05 5.71791e-06 112.008 -36.248 18.3173 19.3187 2.94116 -33.1206 11.7435 -7.16886 35.1919 9.44564 -0.808729 -12.6591 24.6332 -1.43818e-06 -1.21764e-05 -2.98972e-13 -21.7112 -35.1567 -22.9804 9.64931 50.1392 -14.7958 -6.45046 -12.083 -10.3273 -2.29036e-06 -11.4933 -1.22808e-05 
7.32157 96.3899 17.5199 12.4974 1.93128 -60.3896 0.0833428 3.26939 -0.602237 1.66757 5.79266 -1.21788 1.83969 5.86341 -1.1223 -2.85644 -1.20727 9.10603 -29.0199 3.41397 26.5886 -7.65771 9.54502 -12.1672 -56.5897 -9.282 -37.2439 -0.000184009 -5.17168e-06 -109.812 38.481 -9.20705 -7.93034 -1.49288 4.65971 11.9382 43.0405 2.92192 36.9865 1.33137e-05 1.07207e-05 110.567 -34.5297 15.4309 17.6871 7.9321 -35.6557 14.3589 -7.90508 39.3832 10.427 -1.64744 -13.7567 19.8563 2.45941e-06 -3.38047e-05 -9.49024e-06 -23.2447 -34.607 -23.2039 7.43528 51.5575 -13.7769 -3.81978 -12.5178 -4.01309 2.58145e-06 -10.9344 -1.07844e-05 
6.97506 95.8021 16.3895 11.5352 4.05112 -57.2707 -0.0102754 3.20497 -0.378996 1.05918 5.61831 -0.94308 1.21458 5.68188 -0.849166 -2.69172 -0.983532 8.49537 -27.6769 2.63855 24.2845 -7.56828 9.60347 -12.706 -57.0079 -10.5226 -41.0434 -0.00019661 1.01971e-05 -109.52 38.5167 -8.05431 -7.15606 -2.70839 4.56111 11.8241 44.7495 1.54885 41.9801 2.96704e-05 5.01368e-06 109.182 -32.532 12.4004 15.8077 11.5933 -37.3981 16.0974 -8.4252 41.5798 10.948 -2.20957 -13.7766 15.5978 -5.10886e-07 -6.07521e-05 6.32694e-06 -25.4818 -31.6604 -22.1957 2.88561 48.3038 -10.6114 2.38015 -11.2549 -2.37499 0.239614 -8.6376 0.0354179 
6.53726 95.557 15.3647 10.1512 5.6949 -54.0721 0.21566 3.24288 -0.0228383 0.720947 5.64156 -0.509537 0.860414 5.69724 -0.417662 -2.73964 -0.344699 7.86334 -26.3831 2.24395 21.9188 -7.49626 9.64759 -13.1195 -57.7541 -11.7672 -43.6979 -0.000198364 -3.28509e-12 -109.739 35.1615 -7.35407 -6.84997 -3.9376 4.42489 11.9996 45.7832 -0.0640458 46.3234 7.69613e-07 -4.78481e-06 108.275 -30.195 9.36866 14.083 14.4671 -38.1681 17.3163 -8.43286 42.5808 10.6462 -2.62402 -13.2641 12.0811 -0.00239122 0.000858204 -3.54582e-07 -26.6017 -25.557 -20.0219 -1.76341 39.805 -7.50741 10.4453 -5.85142 -2.96594 -6.56836e-07 -10.4868 -2.38212e-05 
6.00918 95.461 14.4545 8.34877 6.95117 -51.1566 0.643022 3.33855 0.392482 0.573437 5.78391 0.0386684 0.697613 5.8307 0.127626 -2.73424 0.6985 7.22529 -24.9198 2.10521 19.891 -7.34038 9.6529 -13.2551 -58.4394 -13.1696 -45.2053 -0.000214557 -5.25505e-06 -110.145 30.9558 -6.99294 -6.47629 -4.73369 4.29587 12.4208 46.0142 -1.77458 50.0798 3.12508e-05 -4.67323e-06 107.834 -27.3431 6.54961 12.7622 16.9954 -38.3116 18.4081 -7.85859 43.2315 9.89838 -3.14635 -12.6856 8.93319 -0.00297998 0.0208719 6.77575e-06 -26.1118 -17.561 -18.2283 -5.35699 28.5896 -6.53941 17.8588 1.83784 -1.82542 -4.20594e-06 -16.0367 -2.13735e-05 
